<svg xmlns:dc="http://purl.org/dc/elements/1.1/" xmlns:cc="http://creativecommons.org/ns#" xmlns:rdf="http://www.w3.org/1999/02/22-rdf-syntax-ns#" xmlns:svg="http://www.w3.org/2000/svg" xmlns="http://www.w3.org/2000/svg" xmlns:sodipodi="http://sodipodi.sourceforge.net/DTD/sodipodi-0.dtd" xmlns:inkscape="http://www.inkscape.org/namespaces/inkscape" version="1.1" x="0px" y="0px" viewBox="0 0 48 60"><g transform="translate(0,-1004.3622)"><g transform="translate(98.999563,-66.0312)"><g><g transform="translate(86.000597,-33.968791)"><path style="color:#000000;text-indent:0;text-decoration-line:none;text-transform:none;direction:ltr;block-progression:tb;baseline-shift:baseline;enable-background:accumulate;" d="M 24 0 C 10.75146 0 -4e-005 10.748847 0 23.998047 C 2e-005 37.247147 10.75151 48 24 48 C 37.2485 48 47.99998 37.247147 48 23.998047 C 48.00004 10.748847 37.24854 0 24 0 z M 24 1.0078125 C 36.70433 1.0078125 46.992227 11.293247 46.992188 23.998047 C 46.992177 36.702847 36.70429 46.992188 24 46.992188 C 11.29571 46.992188 1.0078225 36.702847 1.0078125 23.998047 C 1.0077725 11.293247 11.29567 1.0078125 24 1.0078125 z M 14.400391 9.9980469 A 0.50005 0.50005 0 0 0 14.34375 10.003906 A 0.50005 0.50005 0 0 0 14 10.503906 L 14 12.503906 L 11 12.503906 L 10.5 12.503906 L 10.5 13.003906 L 10.5 19.003906 L 10.5 19.503906 L 11 19.503906 L 37 19.503906 L 37.5 19.503906 L 37.5 19.003906 L 37.5 13.003906 L 37.5 12.503906 L 37 12.503906 L 34 12.503906 L 34 10.503906 A 0.50005 0.50005 0 0 0 33.5 10.003906 L 31.5 10.003906 A 0.50005 0.50005 0 0 0 31.34375 10.003906 A 0.50005 0.50005 0 0 0 31 10.503906 L 31 12.503906 L 17 12.503906 L 17 10.503906 A 0.50005 0.50005 0 0 0 16.5 10.003906 L 14.5 10.003906 A 0.50005 0.50005 0 0 0 14.400391 9.9980469 z M 15 11.003906 L 16 11.003906 L 16 15.003906 L 15 15.003906 L 15 13.003906 L 15 12.503906 L 15 11.003906 z M 32 11.003906 L 33 11.003906 L 33 15.003906 L 32 15.003906 L 32 13.003906 L 32 12.503906 L 32 11.003906 z M 17 13.501953 L 31 13.501953 L 31 15.501953 A 0.50005 0.50005 0 0 0 31 15.626953 L 31 16.001953 L 31.5 16.001953 L 33.5 16.001953 L 34 16.001953 L 34 15.597656 A 0.50005 0.50005 0 0 0 34 15.501953 L 34 13.501953 L 36.5 13.501953 L 36.5 18.501953 L 11.5 18.501953 L 11.5 13.503906 L 14 13.503906 L 14 15.503906 A 0.50005 0.50005 0 0 0 14 15.628906 L 14 16.003906 L 14.5 16.003906 L 16.5 16.003906 L 17 16.003906 L 17 15.597656 A 0.50005 0.50005 0 0 0 17 15.501953 L 17 13.501953 z M 11.460938 19.978516 A 0.50005 0.50005 0 0 0 11.34375 20.003906 A 0.50005 0.50005 0 0 0 11 20.503906 L 11 37.503906 A 0.50005 0.50005 0 0 0 11.5 38.003906 L 36.5 38.003906 A 0.50005 0.50005 0 0 0 37 37.503906 L 37 20.503906 A 0.50005 0.50005 0 1 0 36 20.503906 L 36 37.003906 L 12 37.003906 L 12 20.503906 A 0.50005 0.50005 0 0 0 11.460938 19.978516 z M 14 21.003906 L 14 23.003906 L 16 23.003906 L 16 21.003906 L 14 21.003906 z M 17 21.003906 L 17 23.003906 L 19 23.003906 L 19 21.003906 L 17 21.003906 z M 20 21.003906 L 20 23.003906 L 22 23.003906 L 22 21.003906 L 20 21.003906 z M 23 21.003906 L 23 23.003906 L 25 23.003906 L 25 21.003906 L 23 21.003906 z M 26 21.003906 L 26 23.003906 L 28 23.003906 L 28 21.003906 L 26 21.003906 z M 29 21.003906 L 29 23.003906 L 31 23.003906 L 31 21.003906 L 29 21.003906 z M 32 21.003906 L 32 23.003906 L 34 23.003906 L 34 21.003906 L 32 21.003906 z M 14 24.003906 L 14 26.003906 L 16 26.003906 L 16 24.003906 L 14 24.003906 z M 17 24.003906 L 17 26.003906 L 19 26.003906 L 19 24.003906 L 17 24.003906 z M 20 24.003906 L 20 26.003906 L 22 26.003906 L 22 24.003906 L 20 24.003906 z M 23 24.003906 L 23 26.003906 L 25 26.003906 L 25 24.003906 L 23 24.003906 z M 26 24.003906 L 26 26.003906 L 28 26.003906 L 28 24.003906 L 26 24.003906 z M 29 24.003906 L 29 26.003906 L 31 26.003906 L 31 24.003906 L 29 24.003906 z M 32 24.003906 L 32 26.003906 L 34 26.003906 L 34 24.003906 L 32 24.003906 z M 14 27.003906 L 14 29.003906 L 16 29.003906 L 16 27.003906 L 14 27.003906 z M 17 27.003906 L 17 29.003906 L 19 29.003906 L 19 27.003906 L 17 27.003906 z M 20 27.003906 L 20 29.003906 L 22 29.003906 L 22 27.003906 L 20 27.003906 z M 23 27.003906 L 23 29.003906 L 25 29.003906 L 25 27.003906 L 23 27.003906 z M 26 27.003906 L 26 29.003906 L 28 29.003906 L 28 27.003906 L 26 27.003906 z M 29 27.003906 L 29 29.003906 L 31 29.003906 L 31 27.003906 L 29 27.003906 z M 32 27.003906 L 32 29.003906 L 34 29.003906 L 34 27.003906 L 32 27.003906 z M 14 30.003906 L 14 32.003906 L 16 32.003906 L 16 30.003906 L 14 30.003906 z M 17 30.003906 L 17 32.003906 L 19 32.003906 L 19 30.003906 L 17 30.003906 z M 20 30.003906 L 20 32.003906 L 22 32.003906 L 22 30.003906 L 20 30.003906 z M 23 30.003906 L 23 32.003906 L 25 32.003906 L 25 30.003906 L 23 30.003906 z M 26 30.003906 L 26 32.003906 L 28 32.003906 L 28 30.003906 L 26 30.003906 z M 29 30.003906 L 29 32.003906 L 31 32.003906 L 31 30.003906 L 29 30.003906 z M 32 30.003906 L 32 32.003906 L 34 32.003906 L 34 30.003906 L 32 30.003906 z M 14 33.003906 L 14 35.003906 L 16 35.003906 L 16 33.003906 L 14 33.003906 z M 17 33.003906 L 17 35.003906 L 19 35.003906 L 19 33.003906 L 17 33.003906 z M 20 33.003906 L 20 35.003906 L 22 35.003906 L 22 33.003906 L 20 33.003906 z M 23 33.003906 L 23 35.003906 L 25 35.003906 L 25 33.003906 L 23 33.003906 z M 26 33.003906 L 26 35.003906 L 28 35.003906 L 28 33.003906 L 26 33.003906 z M 29 33.003906 L 29 35.003906 L 31 35.003906 L 31 33.003906 L 29 33.003906 z M 32 33.003906 L 32 35.003906 L 34 35.003906 L 34 33.003906 L 32 33.003906 z " transform="translate(-185.00016,1104.3622)" display="inline" overflow="visible" visibility="visible" fill="#000000" fill-opacity="1" stroke="none" marker="none"/></g></g></g></g>
</svg>