<svg xmlns:dc="http://purl.org/dc/elements/1.1/" xmlns:cc="http://creativecommons.org/ns#" xmlns:rdf="http://www.w3.org/1999/02/22-rdf-syntax-ns#" xmlns:svg="http://www.w3.org/2000/svg" xmlns="http://www.w3.org/2000/svg" xmlns:sodipodi="http://sodipodi.sourceforge.net/DTD/sodipodi-0.dtd" xmlns:inkscape="http://www.inkscape.org/namespaces/inkscape" version="1.1" x="0px" y="0px" viewBox="0 0 100 125" xml:space="preserve"><path d="m 35.258621,3.3189668 c -3.953965,0 -7.261664,2.8188793 -8.023303,6.5517235 H 2.500001 V 31.163793 96.681033 H 97.499999 V 31.163793 9.8706903 H 72.764682 c -0.761639,-3.7328442 -4.0677,-6.5517235 -8.023303,-6.5517235 -0.904138,0 -1.637931,0.7321552 -1.637931,1.637931 0,0.9057758 0.733793,1.637931 1.637931,1.637931 2.709138,0 4.913793,2.2046555 4.913793,4.9137922 0,2.709138 -2.204655,4.913793 -4.913793,4.913793 -0.904138,0 -1.637931,0.732156 -1.637931,1.637931 0,0.905776 0.733793,1.637931 1.637931,1.637931 3.953965,0 7.261664,-2.818879 8.023303,-6.551723 H 94.224137 V 27.887931 H 5.775863 V 13.146553 h 22.931034 4.913793 c 0.904138,0 1.637931,-0.732156 1.637931,-1.637932 0,-0.905775 -0.733793,-1.6379307 -1.637931,-1.6379307 h -2.975148 c 0.678104,-1.903275 2.480493,-3.2758615 4.613079,-3.2758615 2.709138,0 4.913793,2.2046555 4.913793,4.9137922 0,2.709138 -2.204655,4.913793 -4.913793,4.913793 -0.904138,0 -1.637931,0.732156 -1.637931,1.637931 0,0.905776 0.733793,1.637931 1.637931,1.637931 4.515776,0 8.189655,-3.673879 8.189655,-8.189655 0,-4.515775 -3.673879,-8.1896542 -8.189655,-8.1896542 z m 9.827586,0 c -0.904138,0 -1.637931,0.7321552 -1.637931,1.637931 0,0.9057758 0.733793,1.637931 1.637931,1.637931 2.709138,0 4.913793,2.2046555 4.913793,4.9137922 0,2.709138 -2.204655,4.913793 -4.913793,4.913793 -0.904138,0 -1.637931,0.732156 -1.637931,1.637931 0,0.905776 0.733793,1.637931 1.637931,1.637931 4.515776,0 8.189655,-3.673879 8.189655,-8.189655 0,-4.515775 -3.673879,-8.1896542 -8.189655,-8.1896542 z m 9.827586,0 c -0.904138,0 -1.637931,0.7321552 -1.637931,1.637931 0,0.9057758 0.733793,1.637931 1.637931,1.637931 2.709138,0 4.913793,2.2046555 4.913793,4.9137922 0,2.709138 -2.204655,4.913793 -4.913793,4.913793 -0.904138,0 -1.637931,0.732156 -1.637931,1.637931 0,0.905776 0.733793,1.637931 1.637931,1.637931 4.515776,0 8.189655,-3.673879 8.189655,-8.189655 0,-4.515775 -3.673879,-8.1896542 -8.189655,-8.1896542 z M 5.775863,31.163793 H 94.224137 V 93.405171 H 5.775863 Z m 58.965516,8.189656 c -6.322414,0 -11.465517,5.144741 -11.465517,11.465516 0,6.320776 5.143103,11.465517 11.465517,11.465517 3.207069,0 6.106207,-1.327338 8.189655,-3.45501 v 14.920527 c 0,4.515776 -3.673879,8.189655 -8.189655,8.189655 -4.515776,0 -8.189655,-3.673879 -8.189655,-8.189655 0,-0.905775 -0.733793,-1.637931 -1.637931,-1.637931 -0.904138,0 -1.637931,0.732156 -1.637931,1.637931 0,6.320776 5.143103,11.465518 11.465517,11.465518 6.322414,0 11.465517,-5.144742 11.465517,-11.465518 V 50.818965 c 0,-6.320775 -5.143103,-11.465516 -11.465517,-11.465516 z m -31.120689,0.0033 c -0.212931,0 -0.427194,0.03885 -0.62702,0.121568 -0.201467,0.08353 -0.37872,0.204408 -0.531048,0.355098 l -9.827586,9.827586 c -0.640431,0.640431 -0.640431,1.675705 0,2.316136 0.319397,0.319318 0.738758,0.479785 1.158068,0.479785 0.41931,0 0.838671,-0.160469 1.158068,-0.479864 l 7.031587,-7.031587 v 36.994208 h -4.913793 c -0.904138,0 -1.637931,0.732156 -1.637931,1.637931 0,0.905776 0.733793,1.637932 1.637931,1.637932 h 13.103448 c 0.904138,0 1.637931,-0.732156 1.637931,-1.637932 0,-0.905775 -0.733793,-1.637931 -1.637931,-1.637931 h -4.913793 v -40.9483 c 0,-0.212931 -0.04286,-0.427193 -0.124761,-0.627019 -0.165431,-0.401295 -0.484854,-0.720716 -0.886147,-0.886147 -0.199829,-0.08272 -0.414092,-0.121566 -0.627023,-0.121566 z m 31.120689,3.272586 c 4.515776,0 8.189655,3.67388 8.189655,8.189655 0,4.515776 -3.673879,8.189655 -8.189655,8.189655 -4.515776,0 -8.189655,-3.673879 -8.189655,-8.189655 0,-4.515775 3.673879,-8.189655 8.189655,-8.189655 z" style="" stroke-width="1"/>
</svg>