<svg xmlns:dc="http://purl.org/dc/elements/1.1/" xmlns:cc="http://creativecommons.org/ns#" xmlns:rdf="http://www.w3.org/1999/02/22-rdf-syntax-ns#" xmlns:svg="http://www.w3.org/2000/svg" xmlns="http://www.w3.org/2000/svg" xmlns:sodipodi="http://sodipodi.sourceforge.net/DTD/sodipodi-0.dtd" xmlns:inkscape="http://www.inkscape.org/namespaces/inkscape" viewBox="0 0 48 60.00000125" version="1.1" x="0px" y="0px"><g transform="translate(0,-1004.3622)"><g transform="matrix(0.70710678,-0.70710678,0.70710678,0.70710678,-727.89285,315.33551)"><g style="" transform="translate(9.6135846,-9.7746952)" fill="#ffffff"><path style="" d="M 24 0 C 10.751085 -2.8284271e-006 -9.4540177e-006 10.751091 0 24 C 8.8600481e-006 37.248909 10.751085 47.999997 24 48 C 37.248915 48.000003 48.000009 37.248909 48 24 C 47.999991 10.751091 37.248915 2.8284272e-006 24 0 z M 24 1 C 36.708439 0.99996677 46.999997 11.291597 47 24 C 47.000024 36.708523 36.708439 46.999967 24 47 C 11.29156 47.000034 1.0000235 36.708524 1 24 C 0.99999675 11.291597 11.29149 0.99996252 24 1 z M 23.5 11.019531 L 23.5 12.019531 L 25.5 12.019531 L 25.5 11.496094 L 25.5 11.019531 L 23.5 11.019531 z M 23.5 13.015625 L 23.5 13.017578 L 23.5 13.494141 C 23.499225 15.993265 21.999971 17.99266 22 19.992188 L 22 23.019531 L 18.998047 23.019531 L 18.998047 20.919922 C 19.53324 20.714524 19.936238 20.19134 20 19.544922 L 20 18.853516 L 20 17.017578 L 17 17.017578 L 17 18.853516 L 17 19.564453 C 17.06962 20.203072 17.469518 20.71351 17.998047 20.917969 L 17.998047 23.019531 L 16.509766 23.019531 C 15.955793 23.019557 15.509792 23.465558 15.509766 24.019531 C 15.50981 24.573576 15.955792 25.019557 16.509766 25.019531 L 23.5 25.019531 L 23.5 34.996094 C 23.500016 35.550308 23.945775 35.996088 24.5 35.996094 C 25.054226 35.996098 25.500014 35.55031 25.5 34.996094 L 25.5 25.019531 L 32.509766 25.019531 C 33.063739 25.019505 33.509739 24.573506 33.509766 24.019531 C 33.509721 23.465487 33.06381 23.019576 32.509766 23.019531 L 30.990234 23.019531 L 30.990234 20.919922 C 31.526313 20.71491 31.930387 20.192038 31.994141 19.544922 L 31.994141 18.853516 L 31.994141 17.017578 L 28.994141 17.017578 L 28.994141 18.853516 L 28.994141 19.564453 C 29.063585 20.202398 29.462422 20.713077 29.990234 20.917969 L 29.990234 23.019531 L 27 23.019531 L 27 19.992188 C 27.000042 17.99273 25.500803 15.99129 25.5 13.492188 L 25.5 13.015625 L 23.5 13.015625 z M 11 18 C 10.445956 17.999955 9.9999555 18.445956 10 19 L 10 35 C 9.9999738 35.553974 10.446026 36.000026 11 36 C 11.553974 35.999974 11.999974 35.553974 12 35 L 12 29 L 18 29 L 18 35 C 18.000044 35.554045 18.445955 35.999956 19 36 C 19.553974 35.999974 19.999974 35.553974 20 35 L 20 28 C 20.000026 27.446026 19.553974 26.999974 19 27 L 12 27 L 12 19 C 12.000026 18.446026 11.553974 17.999974 11 18 z M 38 18 C 37.445956 17.999955 36.999955 18.445956 37 19 L 37 27 L 30 27 C 29.445956 26.999955 28.999955 27.445956 29 28 L 29 35 C 29.000045 35.554044 29.446026 36.000026 30 36 C 30.554044 36.000045 31.000045 35.554044 31 35 L 31 29 L 37 29 L 37 35 C 36.999973 35.553974 37.446026 36.000027 38 36 C 38.553974 35.999974 38.999974 35.553974 39 35 L 39 19 C 38.999955 18.445956 38.553974 17.999974 38 18 z M 23.009766 19.019531 L 26.009766 19.019531 L 26.009766 21.019531 L 23.009766 21.019531 L 23.009766 19.019531 z " transform="matrix(0.70710678,0.70710678,-0.70710678,0.70710678,17.868941,1011.6881)" fill="#000000" fill-opacity="1" stroke="none"/></g></g></g>
</svg>