<svg xmlns="http://www.w3.org/2000/svg" data-name="Livello 1" viewBox="0 0 100 125" x="0px" y="0px"><defs><style>.cls-1{fill:none;stroke:#000;stroke-linecap:round;stroke-linejoin:round;stroke-width:3px;}</style></defs><title>Tavola disegno 15</title><circle class="cls-1" cx="50.28" cy="51" r="43.45"/><path d="M78.21,68.38H23.35c-.56,0-1-.1-1-.67a1.47,1.47,0,0,1,1.53-1.38L78.21,67c.56,0,1,.15,1,.71S78.77,68.38,78.21,68.38Z"/><path d="M28.41,68h-.54c-.56,0-.48.45-.44-.11,0-.21,1.85-20.75,23.35-20.75S74.24,67.7,74.25,67.91c0,.56-.53.3-1.09.35s-.89.38-.94-.18c-.07-.77-1.79-17.87-21.39-17.87-8.25,0-14.4,2.16-18.16,8.41-2.83,4.69-1.71,9.45-3.22,9.46C28.92,68.08,28.93,68,28.41,68Z"/><path d="M55.27,48.52c-.54,0-.47-.38-1-.48-1.82-.31-.27-3.25-3.5-3.25h-.09c-3.18,0-3.35,3.6-3.35,3.76a1,1,0,0,1-1.05,1,1,1,0,0,1-1-1c.07-2,1.37-5.76,5.52-5.7A5.26,5.26,0,0,1,56.28,48c0,.56-.41.54-1,.54Z"/><path d="M39.49,40.46a1,1,0,0,1-.66-.24,6.88,6.88,0,0,1-2.35-4.73,5.67,5.67,0,0,1,2.36-4.35,3,3,0,0,0,1.39-2.38C40.13,27.47,38.58,26.31,38,26a1,1,0,0,1,1-1.77c.12.07,3.87,1,3.86,4.34,0,1.48-1.19,2.89-2.72,4.16a3.76,3.76,0,0,0-1.63,2.8,4.89,4.89,0,0,0,1.64,3.16,1,1,0,0,1-.66,1.79Z"/><path d="M49.65,40.46a1,1,0,0,1-.66-.24c-.1-.08-2.92-1.88-2.9-4.56,0-1.6,1.35-3.23,2.91-4.52a3,3,0,0,0,1.39-2.38c-.11-1.29-1.66-2.45-2.25-2.79a1,1,0,0,1,1-1.77c.12.07,3,1.76,3.26,4.37a4.83,4.83,0,0,1-2.12,4.13,3.76,3.76,0,0,0-1.63,2.8,4.9,4.9,0,0,0,1.64,3.16,1,1,0,0,1-.66,1.79Z"/><path d="M59.81,40.46a1,1,0,0,1-.66-.24,6.88,6.88,0,0,1-2.35-4.73,5.67,5.67,0,0,1,2.36-4.35,3,3,0,0,0,1.39-2.38c-.11-1.29-1.66-2.45-2.25-2.79a1,1,0,0,1,1-1.77c.12.07,3.6,1.59,3.82,4.21.13,1.47-1.15,3-2.68,4.29a3.76,3.76,0,0,0-1.63,2.8,4.9,4.9,0,0,0,1.64,3.16,1,1,0,0,1-.66,1.79Z"/><path d="M68.46,66.51c-.48,0-1.64.06-1.82-1.11-1.36-9.2-7.2-11.31-7.52-11.46-.71-.32-1.95-.59-2.29-1.12s-.06-1.06,1.25-.71A16.87,16.87,0,0,1,69.46,65.3a1,1,0,0,1-.81,1.19Z"/>
</svg>