<svg xmlns="http://www.w3.org/2000/svg" xmlns:xlink="http://www.w3.org/1999/xlink" version="1.1" x="0px" y="0px" viewBox="0 0 100 125" enable-background="new 0 0 100 100" xml:space="preserve"><g><path d="M70.641,62.9c-4.914,0-8.764-2.124-8.764-4.837c0-2.712,3.849-4.837,8.764-4.837s8.763,2.124,8.763,4.837   C79.404,60.776,75.555,62.9,70.641,62.9z M70.641,54.709c-3.444,0-7.282,1.378-7.282,3.355s3.838,3.355,7.282,3.355   c3.444,0,7.282-1.378,7.282-3.355S74.085,54.709,70.641,54.709z"/><path d="M30.656,62.9c-4.914,0-8.763-2.124-8.763-4.837c0-2.712,3.849-4.837,8.763-4.837s8.763,2.124,8.763,4.837   C39.419,60.776,35.57,62.9,30.656,62.9z M30.656,54.709c-3.444,0-7.282,1.378-7.282,3.355s3.838,3.355,7.282,3.355   s7.282-1.378,7.282-3.355S34.1,54.709,30.656,54.709z"/><circle cx="79.54" cy="26.992" r="5.66"/><path d="M33.45,46.728l-0.942-8.904c-0.196-1.567-1.527-2.744-3.106-2.746l-15.426-0.016c-1.622-0.002-2.977,1.234-3.124,2.849   c-0.002-1.068-0.583,8.607-0.857,17.479c-0.004,0.124,0.001,0.246,0.02,0.369c0.477,3.149,1.704,7.196,8.121,9.257   c3.837,1.232,4.654-1.809,3.181-3.622c-1.445-1.778-2.736-3.187-3.606-4.459c-0.813-1.188-0.656-4.571-0.629-4.984   c1.126-0.657,3.066-1.458,3.93-1.805C24.663,48.678,28.883,47.547,33.45,46.728z"/><path d="M68.017,46.728l0.942-8.904c0.196-1.567,1.527-2.744,3.106-2.746l15.426-0.016c1.622-0.002,2.977,1.234,3.124,2.849   c0.002-1.068,0.583,8.607,0.857,17.479c0.004,0.124-0.001,0.246-0.02,0.369c-0.477,3.149-1.704,7.196-8.121,9.257   c-3.837,1.232-4.654-1.809-3.181-3.622c1.445-1.778,2.736-3.187,3.606-4.459c0.813-1.188,0.656-4.571,0.629-4.984   c-1.126-0.657-3.066-1.458-3.93-1.805C76.804,48.678,72.585,47.547,68.017,46.728z"/><path d="M63.398,47.653L61.78,31.296c-0.196-1.567-1.527-2.744-3.106-2.746l-15.426-0.016c-0.001,0-0.002,0-0.003,0   c-1.62,0-2.974,1.235-3.121,2.849l-1.164,16.134c-7.964,0.937-14.92,2.805-20.06,5.289v2.069c1.035-0.535,2.168-1.048,3.395-1.535   c7.544-2.994,17.614-4.642,28.354-4.642s20.81,1.649,28.354,4.642c1.295,0.514,2.486,1.057,3.566,1.623V52.89   C77.641,50.477,71.005,48.639,63.398,47.653z M42.188,31.571c0.05-0.55,0.504-0.964,1.056-0.964h0.001l15.426,0.016   c0.527,0.001,0.974,0.39,1.049,0.91l1.526,15.431c-0.346-0.034-0.695-0.067-1.047-0.099l-1.467-0.122   c-2.624-0.195-5.288-0.294-7.917-0.294l-0.066,0.001l-0.046-0.001H50.69c-3.24,0-6.461,0.146-9.606,0.433L42.188,31.571z"/><path d="M91.293,60.892c-0.545,0.942-1.266,1.854-2.23,2.692c-0.346,3-4.162,6.21-10.363,8.671   c-7.459,2.96-17.432,4.59-28.081,4.59c-10.649,0-20.622-1.63-28.081-4.59c-6.314-2.506-10.158-5.788-10.381-8.835   c-0.932-0.848-1.625-1.767-2.147-2.713c-0.25,0.661,1.32,24.333,1.32,24.333h4.873l-0.131-13.093   c4.274,2.636,10.407,4.749,17.669,6.05l1.119,15.947h4.811l1.233-14.969c3.116,0.3,6.367,0.463,9.715,0.463   c3.229,0,6.367-0.153,9.381-0.432l1.04,14.939h4.811l1.311-15.887c7.411-1.296,13.668-3.436,18.009-6.113l-0.115,12.873h4.873   C89.929,84.817,91.502,61.494,91.293,60.892z"/><polygon points="56.035,55.337 45.467,55.337 45.312,56.5 56.19,56.5  "/><polygon points="57.044,62.891 44.459,62.891 44.304,64.054 57.199,64.054  "/><polygon points="56.539,59.114 44.963,59.114 44.808,60.276 56.695,60.276  "/><path d="M60.368,68.147H41.099l2.211-16.191h14.847L60.368,68.147z M42.857,66.614H58.61l-1.792-13.124h-12.17L42.857,66.614z"/><path d="M19.408,21.724c0.514-0.22,1.069-0.367,1.654-0.425c3.1-0.308,5.863,1.973,6.173,5.096c0.31,3.123-1.95,5.906-5.051,6.214   c-1.968,0.195-3.797-0.656-4.952-2.102c-1.567,1.317-3.556,5.617-6.698-0.188C14.549,33.537,14.408,23.464,19.408,21.724z"/><path d="M55.251,6.791c1.494,0,2.709,1.022,2.709,2.278c0,0.894-0.632,1.71-1.61,2.079l-1.14,0.43v1.218v3.016   c-1.267-0.331-2.62-0.501-4.011-0.501c-1.392,0-2.746,0.17-4.011,0.499v-3.014v-1.218l-1.14-0.43   c-0.978-0.369-1.61-1.185-1.61-2.079c0-1.256,1.215-2.278,2.709-2.278c1.075,0,2.05,0.547,2.482,1.393l1.569,3.068l1.569-3.068   C53.201,7.338,54.176,6.791,55.251,6.791 M55.251,5.029c-1.801,0-3.343,0.967-4.051,2.353c-0.709-1.386-2.251-2.353-4.051-2.353   c-2.47,0-4.472,1.809-4.472,4.04c0,1.68,1.135,3.118,2.75,3.728v5.531c1.625-0.801,3.634-1.254,5.773-1.254   c2.135,0,4.145,0.456,5.773,1.258v-5.535c1.615-0.61,2.75-2.048,2.75-3.728C59.722,6.838,57.721,5.029,55.251,5.029L55.251,5.029z"/><circle cx="50.734" cy="34.106" r="1.215"/><circle cx="50.734" cy="38.951" r="1.215"/><circle cx="50.734" cy="43.795" r="1.215"/><path d="M51.2,18.332c-2,0-3.873,0.409-5.439,1.115c-0.138,0.486-0.221,0.995-0.221,1.526c0,3.126,2.534,5.66,5.66,5.66   s5.66-2.534,5.66-5.66c0-0.529-0.083-1.037-0.22-1.521C55.072,18.744,53.196,18.332,51.2,18.332z"/></g>
</svg>