<svg xmlns="http://www.w3.org/2000/svg" xmlns:xlink="http://www.w3.org/1999/xlink" version="1.1" x="0px" y="0px" viewBox="0 0 66 82.5" enable-background="new 0 0 66 66" xml:space="preserve"><g><path d="M51.9,34.3c0,1.6-0.2,3.1-0.6,4.4c0.1-0.2,0.3-0.3,0.4-0.5c0.1-0.1,0.2-0.3,0.3-0.4c0.1-0.2,0.3-0.3,0.4-0.5   c0.1-0.1,0.2-0.3,0.3-0.4c0.1-0.2,0.3-0.3,0.4-0.5c0.1-0.1,0.2-0.3,0.3-0.4c0.1-0.2,0.2-0.4,0.3-0.5c0.1-0.1,0.2-0.3,0.3-0.4   c0.1-0.2,0.2-0.4,0.3-0.6c0.1-0.2,0.2-0.3,0.2-0.5c0.1-0.2,0.2-0.4,0.3-0.6c0.1-0.2,0.1-0.3,0.2-0.5c0.1-0.2,0.2-0.4,0.3-0.6   c0.1-0.2,0.1-0.3,0.2-0.5c0.1-0.2,0.1-0.4,0.2-0.6c0.1-0.2,0.1-0.3,0.2-0.5c0.1-0.2,0.1-0.5,0.2-0.7c0-0.1,0.1-0.3,0.1-0.4   c0.1-0.3,0.1-0.5,0.2-0.8c0-0.1,0.1-0.2,0.1-0.4c0,0,0,0,0,0c-1.5,0.1-3.2,0.5-5,0.9C51.8,31,51.9,32.7,51.9,34.3z"/><g><path d="M38.3,25.4l3.1,5.8c2.8-1.5,5.3-2.5,7.7-3.3c-0.6-2.3-1.4-4.6-2.6-6.9L38.3,25.4z"/><path d="M44.5,6.7c-1.1-0.3-5-2.2-10.8-1.3c2.5,0.8,5.1,2.5,7.5,4.9C42.6,9.1,43.7,7.8,44.5,6.7z"/><path d="M24.4,20.1c2.4-0.8,4.8-1.8,7.2-3.1l-4.8-9C24.2,10.1,23.4,14.7,24.4,20.1z"/><path d="M39.7,11.6c-2.9-2.8-7.4-5.7-11.2-4.5l4.7,9C35.7,14.7,37.9,13.2,39.7,11.6z"/><path d="M32.7,36.9c1.9-1.5,4-3.1,6.9-4.7l-3.1-5.8l-8.2,4.4C29.6,33,31.1,35.1,32.7,36.9z"/><path d="M42.7,11.7c1.7,1.9,3.3,4.1,4.7,6.6l6.6-3.5c-1.8-3.1-4.4-5.6-7.6-7.3C45.4,8.9,44.2,10.3,42.7,11.7z"/><path d="M24.8,22c0.6,2.2,1.4,4.6,2.6,6.9l8.2-4.4l-3.1-5.8C29.9,20.1,27.3,21.2,24.8,22z"/><path d="M41.1,13.1c-2,1.7-4.3,3.3-6.9,4.7l3.1,5.8l8.2-4.4C44.3,16.9,42.7,14.8,41.1,13.1z"/><path d="M40,44.5c-2.5-0.8-5.1-2.5-7.5-4.9c-1.3,1.2-2.4,2.5-3.3,3.6C32.7,44.7,36.4,45.1,40,44.5z"/><path d="M49.5,29.9c-2.2,0.7-4.6,1.7-7.2,3.1l4.8,9C50.2,39.4,50.2,33.9,49.5,29.9z"/><path d="M54.9,16.6l-6.6,3.5c1.2,2.4,2.1,4.9,2.7,7.2c2-0.5,4-0.9,5.7-1C56.9,23,56.3,19.7,54.9,16.6z"/><path d="M17.4,21.6c1.5-0.1,3.2-0.5,5-0.9c-0.7-3.5-0.6-6.7,0.1-9.3C19.5,14.6,18.3,17.5,17.4,21.6z"/><path d="M19,33.4l6.6-3.5c-1.2-2.4-2.1-4.9-2.8-7.2c-2,0.5-3.9,0.9-5.7,1C16.9,27,17.5,30.3,19,33.4z"/><path d="M27.5,42.4c0.9-1.4,2.2-2.8,3.7-4.2c-1.7-1.9-3.3-4.1-4.7-6.6l-6.6,3.5C21.7,38.3,24.4,40.8,27.5,42.4z"/><path d="M45.3,42.9l-4.7-9c-2.7,1.6-4.7,3-6.4,4.4C37,41.1,41.4,44,45.3,42.9z"/><path d="M48.3,45.9c-0.5,0.3-1.5,0.7-1.9,0.9l1.3,1.3c-12.2,5.6-26.9,1-33.3-11.2C7.9,24.9,12.2,9.9,23.8,3l0.5,1.8    c0.5-0.3,0.9-0.6,1.4-0.9l0.4-0.2l-0.6-2.5c-0.2-0.6-0.9-0.9-1.4-0.6C10.6,7.7,5.4,24.5,12.6,37.9c2,3.8,4.9,7.1,8.3,9.5v11.4    h-7.6c-0.3,0-0.7,0.2-0.8,0.5l-3,4.7c-0.4,0.7,0.1,1.6,0.8,1.6h29.5c0,0,0,0,0,0c0.9,0,1.3-1.1,0.7-1.7l-2.9-4.5    c-0.5-0.8-0.9-0.3-8.4-0.5v-7.4c6.9,2,14.3,1.3,20.7-2.1c0.6-0.3,0.7-1.1,0.2-1.6L48.3,45.9z"/></g></g>
</svg>