<svg xmlns:dc="http://purl.org/dc/elements/1.1/" xmlns:cc="http://creativecommons.org/ns#" xmlns:rdf="http://www.w3.org/1999/02/22-rdf-syntax-ns#" xmlns:svg="http://www.w3.org/2000/svg" xmlns="http://www.w3.org/2000/svg" xmlns:sodipodi="http://sodipodi.sourceforge.net/DTD/sodipodi-0.dtd" xmlns:inkscape="http://www.inkscape.org/namespaces/inkscape" viewBox="0 0 48 60.00000125" version="1.1" x="0px" y="0px"><g transform="translate(0,-1004.3622)"><g transform="translate(-381,-455.99999)"><path style="color:#000000;text-indent:0;text-decoration-line:none;text-transform:none;direction:ltr;block-progression:tb;baseline-shift:baseline;enable-background:accumulate;" d="M 24 0 C 10.75149 0 0 10.749047 0 23.998047 C -3e-005 37.247147 10.75147 48 24 48 C 37.24853 48 48.00003 37.247147 48 23.998047 C 48 10.749047 37.24851 0 24 0 z M 24 1.0078125 C 36.7043 1.0078125 46.992188 11.293247 46.992188 23.998047 C 46.992217 36.702947 36.70432 46.992188 24 46.992188 C 11.29568 46.992188 1.0077825 36.702947 1.0078125 23.998047 C 1.0078125 11.293247 11.2957 1.0078125 24 1.0078125 z M 24 9.0195312 C 17.38372 9.0195312 12 14.265531 12 20.769531 C 12 24.191531 14.94739 28.621681 17.84375 32.300781 C 20.74011 35.979981 23.65625 38.863281 23.65625 38.863281 A 0.50004998 0.50004998 0 0 0 24.34375 38.863281 C 24.34375 38.863281 27.25989 35.979981 30.15625 32.300781 C 33.05261 28.621681 36 24.191531 36 20.769531 C 36 14.265531 30.61628 9.0195312 24 9.0195312 z M 24 10.019531 C 30.08628 10.019531 35 14.816531 35 20.769531 C 35 23.576131 32.19739 28.050981 29.34375 31.675781 C 26.66639 35.076781 24.32092 37.414681 24 37.738281 C 23.67908 37.414681 21.33361 35.076781 18.65625 31.675781 C 15.80261 28.050981 13 23.576131 13 20.769531 C 13 14.816531 17.91372 10.019531 24 10.019531 z M 24 12.019531 C 19.58765 12.019531 16 15.607131 16 20.019531 C 16 24.431831 19.58764 28.019531 24 28.019531 C 28.41236 28.019531 32 24.431831 32 20.019531 C 32 15.607131 28.41235 12.019531 24 12.019531 z M 24 13.019531 C 27.87193 13.019531 31 16.147531 31 20.019531 C 31 23.891431 27.87192 27.019531 24 27.019531 C 20.12808 27.019531 17 23.891431 17 20.019531 C 17 16.147531 20.12807 13.019531 24 13.019531 z M 24 14.019531 C 20.69212 14.019531 18 16.711531 18 20.019531 C 18 23.327631 20.69215 26.019531 24 26.019531 C 27.30779 26.019531 30 23.327631 30 20.019531 C 30 16.711531 27.30781 14.019531 24 14.019531 z M 23.5 15.113281 L 23.5 16.769531 L 21.96875 16.769531 C 22.10683 16.295531 22.27938 15.817031 22.46875 15.332031 C 22.80019 15.228631 23.13917 15.150881 23.5 15.113281 z M 24.5 15.113281 C 24.82655 15.147281 25.13476 15.212281 25.4375 15.300781 C 25.63295 15.797781 25.82593 16.284031 25.96875 16.769531 L 24.5 16.769531 L 24.5 15.113281 z M 26.75 15.925781 C 27.11827 16.166781 27.45903 16.430431 27.75 16.769531 L 27 16.769531 C 26.9249 16.489631 26.84188 16.206681 26.75 15.925781 z M 21.21875 15.957031 C 21.12985 16.228731 21.04219 16.498831 20.96875 16.769531 L 20.25 16.769531 C 20.53157 16.441331 20.86459 16.193431 21.21875 15.957031 z M 19.59375 17.769531 L 20.71875 17.769531 C 20.60377 18.347831 20.53649 18.940231 20.5 19.519531 L 19.09375 19.519531 C 19.15735 18.897731 19.32446 18.301931 19.59375 17.769531 z M 21.75 17.769531 L 23.5 17.769531 L 23.5 19.519531 L 21.5 19.519531 C 21.5371 18.943231 21.62598 18.349931 21.75 17.769531 z M 24.5 17.769531 L 26.21875 17.769531 C 26.34499 18.349931 26.42884 18.943231 26.46875 19.519531 L 24.5 19.519531 L 24.5 17.769531 z M 27.21875 17.769531 L 28.40625 17.769531 C 28.67554 18.301931 28.84261 18.897731 28.90625 19.519531 L 27.4375 19.519531 C 27.4035 18.939131 27.33197 18.349031 27.21875 17.769531 z M 19.09375 20.519531 L 20.46875 20.519531 C 20.47985 21.102531 20.55685 21.679331 20.65625 22.269531 L 19.625 22.269531 C 19.34564 21.729131 19.15965 21.153631 19.09375 20.519531 z M 21.46875 20.519531 L 23.5 20.519531 L 23.5 22.269531 L 21.65625 22.269531 C 21.54299 21.677531 21.4846 21.101931 21.46875 20.519531 z M 24.5 20.519531 L 26.5 20.519531 C 26.4869 21.101931 26.4236 21.677531 26.3125 22.269531 L 24.5 22.269531 L 24.5 20.519531 z M 27.46875 20.519531 L 28.90625 20.519531 C 28.84035 21.153631 28.65435 21.729131 28.375 22.269531 L 27.28125 22.269531 C 27.38275 21.679331 27.45507 21.102531 27.46875 20.519531 z M 20.28125 23.269531 L 20.875 23.269531 C 20.9357 23.508331 20.98636 23.747481 21.0625 23.988281 C 20.78125 23.779381 20.51401 23.536131 20.28125 23.269531 z M 21.90625 23.269531 L 23.5 23.269531 L 23.5 24.925781 C 23.10717 24.884781 22.73204 24.798381 22.375 24.675781 C 22.18008 24.196981 22.03775 23.734931 21.90625 23.269531 z M 24.5 23.269531 L 26.0625 23.269531 C 25.93219 23.734931 25.78848 24.196981 25.59375 24.675781 C 25.24502 24.793181 24.88256 24.885981 24.5 24.925781 L 24.5 23.269531 z M 27.0625 23.269531 L 27.71875 23.269531 C 27.46699 23.557831 27.18317 23.830181 26.875 24.050781 C 26.9587 23.791381 26.99643 23.526531 27.0625 23.269531 z " transform="translate(381,1460.3622)" display="inline" overflow="visible" visibility="visible" fill="#000000" fill-opacity="1" stroke="none" marker="none"/></g></g>
</svg>