<svg xmlns:dc="http://purl.org/dc/elements/1.1/" xmlns:cc="http://creativecommons.org/ns#" xmlns:rdf="http://www.w3.org/1999/02/22-rdf-syntax-ns#" xmlns:svg="http://www.w3.org/2000/svg" xmlns="http://www.w3.org/2000/svg" xmlns:sodipodi="http://sodipodi.sourceforge.net/DTD/sodipodi-0.dtd" xmlns:inkscape="http://www.inkscape.org/namespaces/inkscape" version="1.1" x="0px" y="0px" viewBox="0 0 32 40"><g transform="translate(0,-1020.3622)"><path style="text-indent:0;text-transform:none;direction:ltr;block-progression:tb;baseline-shift:baseline;color:#000000;enable-background:accumulate;" d="M 16 0 C 7.1693651 0 0 7.1694 0 16 C 0 24.8306 7.1693651 32 16 32 C 24.830626 32 32 24.8306 32 16 C 32 7.1694 24.830626 0 16 0 z M 16 1 C 24.290192 1 31 7.7098 31 16 C 31 24.2902 24.290192 31 16 31 C 7.7097991 31 1 24.2902 1 16 C 1 7.7098 7.7097991 1 16 1 z M 8.75 8.96875 C 8.58575 8.98975 8.45356 9.11115 8.40625 9.28125 L 8 10.71875 L 15.21875 10.71875 L 8.90625 8.96875 C 8.84955 8.95275 8.80475 8.96175 8.75 8.96875 z M 7.28125 11.125 C 7.04587 11.125 6.875 11.3271 6.875 11.5625 L 6.875 20.46875 C 6.875 20.70415 7.04587 20.875 7.28125 20.875 L 24.71875 20.875 C 24.95412 20.875 25.125 20.70415 25.125 20.46875 L 25.125 11.5625 C 25.125 11.3271 24.95412 11.125 24.71875 11.125 L 7.28125 11.125 z M 9.90625 12.1875 L 9.9375 12.1875 L 22 12.1875 C 22.20621 12.1875 22.40484 12.38755 22.40625 12.59375 C 22.41225 13.21495 22.90794 13.6875 23.53125 13.6875 C 23.73746 13.6875 23.93609 13.8563 23.9375 14.0625 L 23.9375 17.875 C 23.9425 18.0892 23.74545 18.28635 23.53125 18.28125 C 22.90395 18.28125 22.40625 18.77895 22.40625 19.40625 C 22.40425 19.61245 22.20622 19.8111 22 19.8125 L 9.9375 19.8125 C 9.73129 19.8125 9.5639 19.61245 9.5625 19.40625 C 9.5625 18.78285 9.08514 18.28735 8.46875 18.28125 C 8.25852 18.28125 8.05761 18.0852 8.0625 17.875 L 8.0625 14.0625 C 8.0645 13.8563 8.26254 13.6889 8.46875 13.6875 C 9.08606 13.6775 9.55637 13.21105 9.5625 12.59375 C 9.5629 12.39895 9.71231 12.2065 9.90625 12.1875 z M 9.9375 12.59375 C 9.9295 13.42065 9.29566 14.08555 8.46875 14.09375 L 8.46875 17.875 C 9.30083 17.885 9.9375 18.57205 9.9375 19.40625 L 22 19.40625 C 22 18.56685 22.69189 17.875 23.53125 17.875 L 23.53125 14.09375 C 22.69708 14.09375 22.00825 13.42585 22 12.59375 L 9.9375 12.59375 z M 16 13.15625 C 17.5789 13.15625 18.875 14.4211 18.875 16 C 18.875 17.5789 17.5789 18.875 16 18.875 C 14.42111 18.875 13.15625 17.5789 13.15625 16 C 13.15625 14.4211 14.42111 13.15625 16 13.15625 z M 16 13.53125 C 14.6358 13.53125 13.53125 14.6358 13.53125 16 C 13.53125 17.3642 14.6358 18.46875 16 18.46875 C 17.3642 18.46875 18.46875 17.3642 18.46875 16 C 18.46875 14.6358 17.3642 13.53125 16 13.53125 z M 25.53125 13.59375 L 25.53125 15.78125 L 25.96875 14.15625 C 26.03185 13.92945 25.91427 13.6881 25.6875 13.625 L 25.53125 13.59375 z M 15.8125 14.25 L 16.15625 14.25 L 16.15625 14.5625 C 16.52805 14.6075 16.76547 14.8113 16.875 15.1875 L 16.40625 15.375 C 16.31695 15.117 16.18734 15 16 15 C 15.9063 15 15.80693 15.03575 15.75 15.09375 C 15.6931 15.15175 15.6875 15.19915 15.6875 15.28125 C 15.6875 15.36525 15.6952 15.4553 15.75 15.5 C 15.8048 15.545 15.91362 15.58975 16.09375 15.65625 C 16.29118 15.72825 16.4501 15.77955 16.5625 15.84375 C 16.67491 15.90775 16.77674 16.0119 16.84375 16.125 C 16.91075 16.2382 16.9375 16.3487 16.9375 16.5 C 16.9375 16.732 16.88837 16.93885 16.75 17.09375 C 16.61166 17.24865 16.41709 17.3476 16.15625 17.375 L 16.15625 17.78125 L 15.8125 17.78125 L 15.8125 17.375 C 15.37729 17.33 15.10375 17.0862 15 16.625 L 15.5 16.46875 C 15.5476 16.75845 15.73196 16.90625 16 16.90625 C 16.12537 16.90625 16.19091 16.8745 16.25 16.8125 C 16.3091 16.7505 16.34375 16.68155 16.34375 16.59375 C 16.34375 16.50275 16.3091 16.4219 16.25 16.375 C 16.1909 16.328 16.07819 16.2595 15.875 16.1875 C 15.69198 16.1245 15.54054 16.09325 15.4375 16.03125 C 15.33446 15.96925 15.25162 15.8616 15.1875 15.75 C 15.1234 15.6383 15.09375 15.5234 15.09375 15.375 C 15.09375 15.1804 15.1667 14.99935 15.28125 14.84375 C 15.39581 14.68805 15.56607 14.5971 15.8125 14.5625 L 15.8125 14.25 z M 6.46875 16.15625 L 6 17.84375 C 5.9369 18.07055 6.08578 18.3119 6.3125 18.375 L 6.46875 18.40625 L 6.46875 16.15625 z M 16.75 21.28125 L 23.0625 23.03125 C 23.28926 23.09425 23.53067 22.9769 23.59375 22.75 L 24 21.28125 L 16.75 21.28125 z " transform="translate(0,1020.3622)" fill="#000000" fill-opacity="1" stroke="none" marker="none" visibility="visible" display="inline" overflow="visible"/></g><text x="0" y="47" fill="#000000" font-size="5px" font-weight="bold" font-family="'Helvetica Neue', Helvetica, Arial-Unicode, Arial, Sans-serif">Created by Chameleon Design</text><text x="0" y="52" fill="#000000" font-size="5px" font-weight="bold" font-family="'Helvetica Neue', Helvetica, Arial-Unicode, Arial, Sans-serif">from the Noun Project</text></svg>